<svg width="746" height="256" viewBox="0 0 746 256" fill="none" xmlns="http://www.w3.org/2000/svg">
<path fill-rule="evenodd" clip-rule="evenodd" d="M518.18 74.868V62.2758H505.811V74.868H518.18ZM270.223 101.335V152.055H257.854V99.587C257.854 95.389 259.304 91.8132 262.206 88.8595C265.108 85.9058 268.619 84.429 272.743 84.429H309.851V97.0214H274.461C272.781 97.0214 271.654 97.313 271.082 97.8963C270.509 98.4788 270.223 99.6259 270.223 101.335ZM392.312 99.587V152.055H339.628C335.505 152.055 331.993 150.578 329.091 147.624C326.19 144.671 324.739 141.095 324.739 136.898V111.946H379.828V101.335C379.828 99.6259 379.561 98.4788 379.027 97.8963C378.492 97.313 377.385 97.0214 375.705 97.0214H324.739V84.429H377.423C381.546 84.429 385.058 85.9058 387.96 88.8595C390.861 91.8132 392.312 95.389 392.312 99.587ZM379.828 139.463H341.346C339.666 139.463 338.54 139.171 337.967 138.588C337.395 138.005 337.109 136.859 337.109 135.149V123.722H379.828V139.463ZM490.121 84.429L453.471 152.055H441.101L404.452 84.429H418.768L447.286 137.83L475.804 84.429H490.121ZM518.18 84.429V152.055H505.811V84.429H518.18ZM577.965 152.055V139.463H554.945C553.265 139.463 552.138 139.171 551.566 138.588C550.993 138.005 550.707 136.859 550.707 135.149V97.0214H577.965V84.429H550.707V63.0919H538.337V136.898C538.337 141.095 539.788 144.671 542.69 147.624C545.591 150.578 549.103 152.055 553.227 152.055H577.965ZM656.876 147.624C653.974 150.578 650.463 152.055 646.339 152.055H608.545C604.422 152.055 600.909 150.578 598.008 147.624C595.107 144.671 593.655 141.095 593.655 136.898V99.587C593.655 95.389 595.107 91.8132 598.008 88.8595C600.909 85.9058 604.422 84.429 608.545 84.429H646.339C650.463 84.429 653.974 85.9058 656.876 88.8595C659.778 91.8132 661.229 95.389 661.229 99.587V136.898C661.229 141.095 659.778 144.671 656.876 147.624ZM644.621 139.463H610.263C608.583 139.463 607.457 139.171 606.884 138.588C606.311 138.005 606.024 136.859 606.024 135.149V101.335C606.024 99.6259 606.311 98.4788 606.884 97.8963C607.457 97.313 608.583 97.0214 610.263 97.0214H644.621C646.301 97.0214 647.409 97.313 647.943 97.8963C648.477 98.4788 648.745 99.6259 648.745 101.335V135.149C648.745 136.859 648.477 138.005 647.943 138.588C647.409 139.171 646.301 139.463 644.621 139.463ZM690.204 101.335V152.055H677.835V84.429H730.522C734.643 84.429 738.154 85.9058 741.055 88.8595C743.956 91.8132 745.411 95.389 745.411 99.587V152.055H733.041V101.335C733.041 99.6259 732.755 98.4788 732.182 97.8963C731.609 97.313 730.478 97.0214 728.803 97.0214H694.442C692.762 97.0214 691.636 97.313 691.063 97.8963C690.491 98.4788 690.204 99.6259 690.204 101.335Z" fill="#2F2F43"/>
<path d="M194.585 238.091C203.89 238.091 211.799 234.636 218.311 227.726C224.825 220.816 228.081 212.425 228.081 202.554V125.556H129.617V149.839H205.471V202.554C205.471 205.713 204.401 208.427 202.261 210.698C200.121 212.968 197.563 214.104 194.585 214.104H60.5998C57.6224 214.104 55.0636 212.968 52.9236 210.698C50.7835 208.427 49.7135 205.713 49.7135 202.554V60.4034C49.7135 57.2444 50.7835 54.5298 52.9236 52.2594C55.0636 49.9889 57.6224 48.8537 60.5998 48.8537H194.585C197.563 48.8537 200.121 49.9889 202.261 52.2594C204.401 54.5298 205.471 57.2444 205.471 60.4034V68.9919H228.081V60.4034C228.081 50.5318 224.825 42.141 218.311 35.231C211.799 28.3209 203.89 24.8658 194.585 24.8658H60.5998C51.2953 24.8658 43.3864 28.3209 36.8733 35.231C30.3601 42.141 27.1035 50.5318 27.1035 60.4034V202.554C27.1035 212.425 30.3601 220.816 36.8733 227.726C43.3864 234.636 51.2953 238.091 60.5998 238.091H194.585Z" fill="#2F2F43"/>
<path fill-rule="evenodd" clip-rule="evenodd" d="M97.9701 58.7794C103.432 31.752 86.1666 5.8078 59.406 0.831368C32.6454 -4.14501 6.52381 13.7308 1.06171 40.7583C-4.40048 67.7854 12.8653 93.7297 39.6258 98.7061C66.3864 103.683 92.5081 85.8071 97.9701 58.7794Z" fill="url(#paint0_radial)"/>
<path fill-rule="evenodd" clip-rule="evenodd" d="M252.298 227.476C256.123 208.557 244.038 190.394 225.306 186.907C206.574 183.42 188.288 195.929 184.463 214.848C180.638 233.766 192.723 251.93 211.455 255.417C230.188 258.904 248.474 246.394 252.298 227.476Z" fill="url(#paint1_radial)"/>
<path fill-rule="evenodd" clip-rule="evenodd" d="M174.4 143.114C178.225 124.195 166.14 106.031 147.407 102.545C128.676 99.0575 110.389 111.567 106.564 130.486C102.739 149.404 114.825 167.567 133.557 171.055C152.289 174.541 170.575 162.032 174.4 143.114Z" fill="url(#paint2_radial)"/>
<defs>
<radialGradient id="paint0_radial" cx="0" cy="0" r="1" gradientUnits="userSpaceOnUse" gradientTransform="translate(71.2065 72.0997) rotate(-131.174) scale(82.6483 75.8957)">
<stop stop-color="white"/>
<stop offset="0.501768" stop-color="#3C4149"/>
<stop offset="0.761481" stop-color="#454A52"/>
<stop offset="0.882295" stop-color="#CBD0DA"/>
</radialGradient>
<radialGradient id="paint1_radial" cx="0" cy="0" r="1" gradientUnits="userSpaceOnUse" gradientTransform="translate(205.992 207.72) rotate(43.1301) scale(49.1385 45.179)">
<stop stop-color="white"/>
<stop offset="0.501768" stop-color="#3C4149"/>
<stop offset="0.761481" stop-color="#454A52"/>
<stop offset="1" stop-color="#CBD0DA"/>
</radialGradient>
<radialGradient id="paint2_radial" cx="0" cy="0" r="1" gradientUnits="userSpaceOnUse" gradientTransform="translate(128.094 123.358) rotate(43.1301) scale(49.1385 45.179)">
<stop stop-color="white"/>
<stop offset="0.501768" stop-color="#3C4149"/>
<stop offset="0.761481" stop-color="#454A52"/>
<stop offset="1" stop-color="#CBD0DA"/>
</radialGradient>
</defs>
</svg>
